# xmcd
#
# Track frame offsets:
#	150
#	12776
#	22095
#	34792
#	47144
#	60713
#	71728
#	85289
#	96047
#	113534
#	124507
#	139567
#	153603
#	163594
#	175188
#	185248
#	195318
#	205665
#	216204
#	225694
#
# Disc length: 3185 seconds
#
# Revision: 0
# Processed by: cddbd v1.5.2PL0 Copyright (c) Steve Scherf et al.
# Submitted via: FairStars CD Ripper 1.50
#
DISCID=100c6f14
DTITLE=Tennessee Ernie Ford - Famous Country Music Makers CD2
DYEAR=2008
DGENRE=Country
TTITLE0=Dark as a Dungeon
TTITLE1=Nine Pound Hammer
TTITLE2=Stack-O-Lee
TTITLE3=She's My Baby
TTITLE4=Kentucky Waltz
TTITLE5=Tennessee Local
TTITLE6=Three Things (A Man Must Do)
TTITLE7=I Aint' Gonna Let It Happen No More
TTITLE8=The Last Letter
TTITLE9=Farewell
TTITLE10=I Am a Pilgrim
TTITLE11=Bright Lights and Blonde-Haired Women
TTITLE12=You Don't Have to Be a Baby to Cry
TTITLE13=I Don't Know
TTITLE14=The Rovin' Gambler
TTITLE15=Rock City Boogie
TTITLE16=False Hearted Girl
TTITLE17=Cool, Cool Kisses
TTITLE18=Hey, Good Lookin'
TTITLE19=Streamlined Cannonball
EXTD=
EXTT0=
EXTT1=
EXTT2=
EXTT3=
EXTT4=
EXTT5=
EXTT6=
EXTT7=
EXTT8=
EXTT9=
EXTT10=
EXTT11=
EXTT12=
EXTT13=
EXTT14=
EXTT15=
EXTT16=
EXTT17=
EXTT18=
EXTT19=
PLAYORDER=
